<svg xmlns="http://www.w3.org/2000/svg" xmlns:xlink="http://www.w3.org/1999/xlink" version="1.1" width="1000" height="1000" viewBox="0 0 1000 1000" xml:space="preserve">
<desc>Created with Fabric.js 3.5.0</desc>
<defs>
</defs>
<rect x="0" y="0" width="100%" height="100%" fill="#ffffff"/>
<g transform="matrix(0.977 0 0 1.3924 499.9797 656.1616)" id="859480">
<g style="" vector-effect="non-scaling-stroke">
		<g transform="matrix(1 0 0 1 0.25 -0.75)" id="Layer_1">
<rect style="stroke: none; stroke-width: 1; stroke-dasharray: none; stroke-linecap: butt; stroke-dashoffset: 0; stroke-linejoin: miter; stroke-miterlimit: 4; is-custom-font: none; font-file-url: none; fill: none; fill-rule: nonzero; opacity: 1;" x="-512" y="-512" rx="0" ry="0" width="1024" height="1024"/>
</g>
		<g transform="matrix(1 0 0 1 -172.061 477.6415)" id="Layer_1">
<path style="stroke: none; stroke-width: 1; stroke-dasharray: none; stroke-linecap: butt; stroke-dashoffset: 0; stroke-linejoin: miter; stroke-miterlimit: 4; is-custom-font: none; font-file-url: none; fill: rgb(0,0,0); fill-rule: nonzero; opacity: 1;" transform=" translate(-339.689, -989.3915)" d="M 332.267 979.725 h 4 c 3.144 0 5.735 0.83 7.769 2.486 c 2.053 1.641 3.076 3.999 3.076 7.077 c 0 3.162 -1.016 5.583 -3.052 7.253 c -2.031 1.68 -4.657 2.517 -7.869 2.517 h -3.925 V 979.725 z M 334.677 996.852 h 0.848 c 1.248 0 2.426 -0.123 3.542 -0.371 c 1.109 -0.248 2.075 -0.667 2.907 -1.254 c 0.827 -0.592 1.49 -1.361 1.986 -2.31 c 0.497 -0.951 0.741 -2.125 0.741 -3.525 c 0 -1.387 -0.24 -2.57 -0.728 -3.55 c -0.488 -0.984 -1.167 -1.749 -2.04 -2.298 c -0.871 -0.561 -1.833 -0.973 -2.886 -1.232 c -1.047 -0.255 -2.222 -0.383 -3.522 -0.383 h -0.848 V 996.852 z" stroke-linecap="round"/>
</g>
		<g transform="matrix(1 0 0 1 -157.6735 481.3315)" id="Layer_1">
<path style="stroke: none; stroke-width: 1; stroke-dasharray: none; stroke-linecap: butt; stroke-dashoffset: 0; stroke-linejoin: miter; stroke-miterlimit: 4; is-custom-font: none; font-file-url: none; fill: rgb(0,0,0); fill-rule: nonzero; opacity: 1;" transform=" translate(-354.0765, -993.0815)" d="M 350.651 993.441 c 0.035 1.078 0.376 2.007 1.027 2.796 c 0.664 0.784 1.53 1.182 2.586 1.182 c 0.839 0 1.528 -0.192 2.066 -0.577 c 0.537 -0.388 1.048 -0.97 1.525 -1.757 l 1.951 1.1 c -0.566 1.025 -1.34 1.826 -2.324 2.413 c -0.982 0.578 -2.061 0.867 -3.241 0.867 c -1.797 0 -3.231 -0.595 -4.31 -1.793 c -1.057 -1.211 -1.584 -2.72 -1.584 -4.515 c 0 -1.892 0.501 -3.448 1.509 -4.661 c 0.991 -1.198 2.437 -1.798 4.333 -1.798 c 1.846 0 3.238 0.6 4.18 1.798 c 0.955 1.191 1.437 2.722 1.437 4.587 v 0.358 H 350.651 z M 357.497 991.696 c -0.137 -0.921 -0.488 -1.65 -1.064 -2.189 c -0.575 -0.539 -1.321 -0.809 -2.242 -0.809 c -0.446 0 -0.863 0.069 -1.243 0.219 c -0.384 0.147 -0.729 0.354 -1.029 0.628 c -0.298 0.274 -0.545 0.592 -0.744 0.963 c -0.193 0.371 -0.327 0.766 -0.396 1.188 H 357.497 z" stroke-linecap="round"/>
</g>
		<g transform="matrix(1 0 0 1 -146.5235 481.334)" id="Layer_1">
<path style="stroke: none; stroke-width: 1; stroke-dasharray: none; stroke-linecap: butt; stroke-dashoffset: 0; stroke-linejoin: miter; stroke-miterlimit: 4; is-custom-font: none; font-file-url: none; fill: rgb(0,0,0); fill-rule: nonzero; opacity: 1;" transform=" translate(-365.2265, -993.084)" d="M 366.6 989.801 c -0.343 -0.698 -0.855 -1.052 -1.539 -1.052 c -0.323 0 -0.615 0.115 -0.872 0.344 c -0.256 0.236 -0.384 0.513 -0.384 0.838 c 0 0.306 0.096 0.565 0.295 0.781 c 0.195 0.217 0.462 0.414 0.805 0.603 c 0.223 0.101 0.396 0.183 0.515 0.242 c 0.119 0.061 0.314 0.152 0.591 0.27 c 0.13 0.07 0.255 0.123 0.358 0.154 c 0.1 0.034 0.178 0.07 0.23 0.104 c 0.852 0.393 1.528 0.845 2.027 1.357 c 0.496 0.515 0.741 1.198 0.741 2.053 c 0 1.128 -0.412 2.076 -1.231 2.844 c -0.807 0.751 -1.768 1.127 -2.898 1.127 c -0.46 0 -0.907 -0.063 -1.334 -0.19 c -0.426 -0.125 -0.823 -0.308 -1.191 -0.539 c -0.367 -0.231 -0.691 -0.513 -0.973 -0.845 c -0.281 -0.334 -0.501 -0.707 -0.654 -1.114 l 1.974 -0.899 c 0.563 1.024 1.289 1.542 2.178 1.542 c 0.361 0 0.693 -0.104 1 -0.298 c 0.309 -0.198 0.535 -0.443 0.68 -0.744 c 0.145 -0.299 0.176 -0.623 0.09 -0.972 c -0.084 -0.352 -0.353 -0.682 -0.795 -0.989 l -2.257 -1.203 c -0.39 -0.207 -0.731 -0.412 -1.022 -0.619 c -0.292 -0.199 -0.531 -0.421 -0.719 -0.651 c -0.186 -0.233 -0.33 -0.489 -0.425 -0.772 c -0.091 -0.279 -0.138 -0.609 -0.138 -0.984 c 0 -0.975 0.34 -1.793 1.024 -2.46 c 0.684 -0.688 1.521 -1.027 2.512 -1.027 c 1.504 0 2.599 0.7 3.283 2.104 L 366.6 989.801 z" stroke-linecap="round"/>
</g>
		<g transform="matrix(1 0 0 1 -138.46 477.7575)" id="Layer_1">
<path style="stroke: none; stroke-width: 1; stroke-dasharray: none; stroke-linecap: butt; stroke-dashoffset: 0; stroke-linejoin: miter; stroke-miterlimit: 4; is-custom-font: none; font-file-url: none; fill: rgb(0,0,0); fill-rule: nonzero; opacity: 1;" transform=" translate(-373.29, -989.5075)" d="M 374.879 981.57 c 0 0.431 -0.153 0.792 -0.462 1.103 c -0.308 0.311 -0.682 0.459 -1.126 0.459 s -0.82 -0.148 -1.128 -0.459 c -0.307 -0.311 -0.462 -0.672 -0.462 -1.103 c 0 -0.445 0.155 -0.823 0.462 -1.141 c 0.308 -0.317 0.685 -0.472 1.128 -0.472 s 0.818 0.154 1.126 0.472 C 374.727 980.747 374.879 981.125 374.879 981.57 z M 374.444 999.058 h -2.306 v -12.003 h 2.306 V 999.058 z" stroke-linecap="round"/>
</g>
		<g transform="matrix(1 0 0 1 -128.473 484.566)" id="Layer_1">
<path style="stroke: none; stroke-width: 1; stroke-dasharray: none; stroke-linecap: butt; stroke-dashoffset: 0; stroke-linejoin: miter; stroke-miterlimit: 4; is-custom-font: none; font-file-url: none; fill: rgb(0,0,0); fill-rule: nonzero; opacity: 1;" transform=" translate(-383.277, -996.316)" d="M 389.368 998.824 c 0 2.26 -0.428 4.012 -1.284 5.258 c -0.853 1.23 -2.376 1.849 -4.566 1.849 c -1.689 0 -3.077 -0.491 -4.151 -1.461 c -1.06 -0.977 -1.605 -2.301 -1.639 -3.98 h 2.305 c 0 1.081 0.327 1.913 0.985 2.503 c 0.661 0.592 1.528 0.888 2.605 0.888 c 1.316 0 2.215 -0.387 2.704 -1.157 c 0.491 -0.77 0.73 -1.855 0.73 -3.258 v -2.281 h -0.051 c -0.479 0.722 -1.069 1.279 -1.783 1.682 c -0.709 0.402 -1.473 0.6 -2.292 0.6 c -1.779 0 -3.179 -0.621 -4.205 -1.868 c -1.027 -1.251 -1.54 -2.786 -1.54 -4.615 c 0 -1.726 0.522 -3.193 1.566 -4.413 c 1.04 -1.247 2.399 -1.87 4.075 -1.87 c 1.762 0 3.151 0.804 4.179 2.411 h 0.051 v -2.055 h 2.31 V 998.824 z M 383.29 997.419 c 1.213 0 2.161 -0.421 2.847 -1.259 c 0.701 -0.854 1.054 -1.894 1.054 -3.102 c 0 -1.196 -0.354 -2.214 -1.054 -3.049 c -0.686 -0.843 -1.634 -1.261 -2.847 -1.261 c -1.146 0 -2.067 0.431 -2.77 1.28 c -0.681 0.84 -1.024 1.846 -1.024 3.029 c 0 1.208 0.343 2.238 1.024 3.075 C 381.223 996.988 382.144 997.419 383.29 997.419 z" stroke-linecap="round"/>
</g>
		<g transform="matrix(1 0 0 1 -114.2675 481.127)" id="Layer_1">
<path style="stroke: none; stroke-width: 1; stroke-dasharray: none; stroke-linecap: butt; stroke-dashoffset: 0; stroke-linejoin: miter; stroke-miterlimit: 4; is-custom-font: none; font-file-url: none; fill: rgb(0,0,0); fill-rule: nonzero; opacity: 1;" transform=" translate(-397.4825, -992.877)" d="M 394.672 988.672 h 0.055 c 0.341 -0.628 0.837 -1.119 1.485 -1.458 c 0.648 -0.345 1.36 -0.516 2.13 -0.516 c 0.784 0 1.452 0.12 1.997 0.356 c 0.549 0.243 0.989 0.582 1.321 1.027 c 0.335 0.447 0.573 0.986 0.717 1.629 c 0.145 0.641 0.22 1.372 0.22 2.195 v 7.151 h -2.309 v -6.87 c 0 -1.184 -0.168 -2.043 -0.512 -2.589 c -0.339 -0.565 -1.052 -0.85 -2.125 -0.85 c -0.397 0 -0.731 0.038 -1.003 0.115 s -0.51 0.19 -0.718 0.335 c -0.206 0.146 -0.372 0.31 -0.514 0.5 c -0.132 0.186 -0.264 0.395 -0.383 0.613 c -0.053 0.123 -0.1 0.274 -0.139 0.463 c -0.043 0.188 -0.083 0.382 -0.118 0.574 c -0.034 0.197 -0.06 0.397 -0.077 0.593 c -0.017 0.197 -0.026 0.354 -0.026 0.472 v 1.131 v 5.513 h -2.305 v -12.003 h 2.305 V 988.672 z" stroke-linecap="round"/>
</g>
		<g transform="matrix(1 0 0 1 -92.6555 476.3845)" id="Layer_1">
<path style="stroke: none; stroke-width: 1; stroke-dasharray: none; stroke-linecap: butt; stroke-dashoffset: 0; stroke-linejoin: miter; stroke-miterlimit: 4; is-custom-font: none; font-file-url: none; fill: rgb(0,0,0); fill-rule: nonzero; opacity: 1;" transform=" translate(-419.0945, -988.1345)" d="M 413.005 976.804 h 2.31 v 12.253 h 0.053 c 1.059 -1.571 2.452 -2.358 4.178 -2.358 c 1.677 0 3.035 0.623 4.076 1.87 c 1.044 1.22 1.562 2.688 1.562 4.413 c 0 1.829 -0.51 3.364 -1.535 4.615 c -1.025 1.247 -2.426 1.868 -4.206 1.868 c -0.821 0 -1.584 -0.197 -2.294 -0.6 s -1.303 -0.96 -1.78 -1.682 h -0.053 v 1.874 h -2.31 V 976.804 z M 418.98 997.419 c 1.216 0 2.163 -0.421 2.846 -1.259 c 0.703 -0.854 1.054 -1.894 1.054 -3.102 c 0 -1.196 -0.351 -2.214 -1.054 -3.049 c -0.683 -0.843 -1.63 -1.261 -2.846 -1.261 c -1.145 0 -2.067 0.431 -2.771 1.28 c -0.682 0.84 -1.024 1.846 -1.024 3.029 c 0 1.208 0.343 2.238 1.024 3.075 C 416.913 996.988 417.836 997.419 418.98 997.419 z" stroke-linecap="round"/>
</g>
		<g transform="matrix(1 0 0 1 -79.68 484.743)" id="Layer_1">
<path style="stroke: none; stroke-width: 1; stroke-dasharray: none; stroke-linecap: butt; stroke-dashoffset: 0; stroke-linejoin: miter; stroke-miterlimit: 4; is-custom-font: none; font-file-url: none; fill: rgb(0,0,0); fill-rule: nonzero; opacity: 1;" transform=" translate(-432.07, -996.493)" d="M 425.519 987.055 h 2.692 l 4.052 7.618 l 3.766 -7.618 h 2.592 l -9.717 18.876 h -2.616 l 4.718 -8.923 L 425.519 987.055 z" stroke-linecap="round"/>
</g>
		<g transform="matrix(1 0 0 1 -57.054 477.2315)" id="Layer_1">
<path style="stroke: none; stroke-width: 1; stroke-dasharray: none; stroke-linecap: butt; stroke-dashoffset: 0; stroke-linejoin: miter; stroke-miterlimit: 4; is-custom-font: none; font-file-url: none; fill: rgb(0,0,0); fill-rule: nonzero; opacity: 1;" transform=" translate(-454.696, -988.9815)" d="M 450.26 994.211 l -2.203 4.847 h -2.591 l 9.231 -20.153 l 9.229 20.153 h -2.587 l -2.207 -4.847 H 450.26 z M 454.697 984.184 l -3.437 7.818 h 6.87 L 454.697 984.184 z" stroke-linecap="round"/>
</g>
		<g transform="matrix(1 0 0 1 -45.2105 476.181)" id="Layer_1">
<path style="stroke: none; stroke-width: 1; stroke-dasharray: none; stroke-linecap: butt; stroke-dashoffset: 0; stroke-linejoin: miter; stroke-miterlimit: 4; is-custom-font: none; font-file-url: none; fill: rgb(0,0,0); fill-rule: nonzero; opacity: 1;" transform=" translate(-466.5395, -987.931)" d="M 467.693 999.058 h -2.307 v -22.254 h 2.307 V 999.058 z" stroke-linecap="round"/>
</g>
		<g transform="matrix(1 0 0 1 -39.518 476.181)" id="Layer_1">
<path style="stroke: none; stroke-width: 1; stroke-dasharray: none; stroke-linecap: butt; stroke-dashoffset: 0; stroke-linejoin: miter; stroke-miterlimit: 4; is-custom-font: none; font-file-url: none; fill: rgb(0,0,0); fill-rule: nonzero; opacity: 1;" transform=" translate(-472.232, -987.931)" d="M 473.387 999.058 h -2.31 v -22.254 h 2.31 V 999.058 z" stroke-linecap="round"/>
</g>
		<g transform="matrix(1 0 0 1 -32.4015 479.0885)" id="Layer_1">
<path style="stroke: none; stroke-width: 1; stroke-dasharray: none; stroke-linecap: butt; stroke-dashoffset: 0; stroke-linejoin: miter; stroke-miterlimit: 4; is-custom-font: none; font-file-url: none; fill: rgb(0,0,0); fill-rule: nonzero; opacity: 1;" transform=" translate(-479.3485, -990.8385)" d="M 482.154 989.877 v 1.923 h -5.611 v -1.923 H 482.154 z" stroke-linecap="round"/>
</g>
		<g transform="matrix(1 0 0 1 -23.8905 476.0275)" id="Layer_1">
<path style="stroke: none; stroke-width: 1; stroke-dasharray: none; stroke-linecap: butt; stroke-dashoffset: 0; stroke-linejoin: miter; stroke-miterlimit: 4; is-custom-font: none; font-file-url: none; fill: rgb(0,0,0); fill-rule: nonzero; opacity: 1;" transform=" translate(-487.8595, -987.7775)" d="M 491.128 979.135 c -0.717 -0.327 -1.229 -0.483 -1.537 -0.483 c -0.5 0 -0.854 0.154 -1.079 0.472 c -0.22 0.315 -0.378 0.703 -0.459 1.165 c -0.052 0.342 -0.081 0.613 -0.092 0.809 c -0.005 0.197 -0.011 0.467 -0.011 0.809 v 5.149 h 3.178 v 2.156 h -3.178 v 9.847 h -2.307 v -9.847 h -1.052 v -2.156 h 1.052 v -5.843 c 0 -3.147 1.287 -4.717 3.869 -4.717 c 0.563 0 1.102 0.106 1.615 0.309 V 979.135 z" stroke-linecap="round"/>
</g>
		<g transform="matrix(1 0 0 1 -15.584 481.129)" id="Layer_1">
<path style="stroke: none; stroke-width: 1; stroke-dasharray: none; stroke-linecap: butt; stroke-dashoffset: 0; stroke-linejoin: miter; stroke-miterlimit: 4; is-custom-font: none; font-file-url: none; fill: rgb(0,0,0); fill-rule: nonzero; opacity: 1;" transform=" translate(-496.166, -992.879)" d="M 494.694 989.004 h 0.074 c 0.293 -0.717 0.72 -1.278 1.283 -1.689 c 0.563 -0.409 1.229 -0.616 1.999 -0.616 c 0.632 0 1.268 0.192 1.897 0.59 l -1.05 2.104 c -0.378 -0.323 -0.848 -0.489 -1.41 -0.489 c -1.181 0 -1.965 0.479 -2.358 1.438 c -0.17 0.442 -0.287 0.883 -0.348 1.318 c -0.062 0.438 -0.088 0.936 -0.088 1.499 v 5.9 h -2.308 v -12.003 h 2.308 V 989.004 z" stroke-linecap="round"/>
</g>
		<g transform="matrix(1 0 0 1 -5.712 481.3315)" id="Layer_1">
<path style="stroke: none; stroke-width: 1; stroke-dasharray: none; stroke-linecap: butt; stroke-dashoffset: 0; stroke-linejoin: miter; stroke-miterlimit: 4; is-custom-font: none; font-file-url: none; fill: rgb(0,0,0); fill-rule: nonzero; opacity: 1;" transform=" translate(-506.038, -993.0815)" d="M 502.614 993.441 c 0.036 1.078 0.38 2.007 1.025 2.796 c 0.668 0.784 1.53 1.182 2.591 1.182 c 0.837 0 1.525 -0.192 2.064 -0.577 c 0.537 -0.388 1.045 -0.97 1.523 -1.757 l 1.951 1.1 c -0.567 1.025 -1.339 1.826 -2.32 2.413 c -0.984 0.578 -2.066 0.867 -3.245 0.867 c -1.793 0 -3.229 -0.595 -4.307 -1.793 c -1.058 -1.211 -1.589 -2.72 -1.589 -4.515 c 0 -1.892 0.503 -3.448 1.514 -4.661 c 0.987 -1.198 2.434 -1.798 4.331 -1.798 c 1.846 0 3.239 0.6 4.18 1.798 c 0.956 1.191 1.437 2.722 1.437 4.587 v 0.358 H 502.614 z M 509.465 991.696 c -0.143 -0.921 -0.498 -1.65 -1.066 -2.189 c -0.574 -0.539 -1.318 -0.809 -2.245 -0.809 c -0.445 0 -0.856 0.069 -1.245 0.219 c -0.382 0.147 -0.724 0.354 -1.024 0.628 c -0.299 0.274 -0.546 0.592 -0.743 0.963 c -0.196 0.371 -0.331 0.766 -0.397 1.188 H 509.465 z" stroke-linecap="round"/>
</g>
		<g transform="matrix(1 0 0 1 6.7975 481.3315)" id="Layer_1">
<path style="stroke: none; stroke-width: 1; stroke-dasharray: none; stroke-linecap: butt; stroke-dashoffset: 0; stroke-linejoin: miter; stroke-miterlimit: 4; is-custom-font: none; font-file-url: none; fill: rgb(0,0,0); fill-rule: nonzero; opacity: 1;" transform=" translate(-518.5475, -993.0815)" d="M 515.122 993.441 c 0.037 1.078 0.381 2.007 1.031 2.796 c 0.665 0.784 1.529 1.182 2.584 1.182 c 0.837 0 1.531 -0.192 2.066 -0.577 c 0.538 -0.388 1.044 -0.97 1.525 -1.757 l 1.948 1.1 c -0.567 1.025 -1.337 1.826 -2.316 2.413 c -0.987 0.578 -2.067 0.867 -3.246 0.867 c -1.797 0 -3.231 -0.595 -4.307 -1.793 c -1.06 -1.211 -1.589 -2.72 -1.589 -4.515 c 0 -1.892 0.505 -3.448 1.514 -4.661 c 0.987 -1.198 2.437 -1.798 4.33 -1.798 c 1.848 0 3.238 0.6 4.179 1.798 c 0.956 1.191 1.436 2.722 1.436 4.587 v 0.358 H 515.122 z M 521.973 991.696 c -0.143 -0.921 -0.491 -1.65 -1.064 -2.189 c -0.575 -0.539 -1.322 -0.809 -2.245 -0.809 c -0.445 0 -0.856 0.069 -1.249 0.219 c -0.379 0.147 -0.722 0.354 -1.019 0.628 c -0.303 0.274 -0.546 0.592 -0.743 0.963 c -0.198 0.371 -0.332 0.766 -0.397 1.188 H 521.973 z" stroke-linecap="round"/>
</g>
		<g transform="matrix(1 0 0 1 17.181 479.0885)" id="Layer_1">
<path style="stroke: none; stroke-width: 1; stroke-dasharray: none; stroke-linecap: butt; stroke-dashoffset: 0; stroke-linejoin: miter; stroke-miterlimit: 4; is-custom-font: none; font-file-url: none; fill: rgb(0,0,0); fill-rule: nonzero; opacity: 1;" transform=" translate(-528.931, -990.8385)" d="M 531.737 989.877 v 1.923 h -5.612 v -1.923 H 531.737 z" stroke-linecap="round"/>
</g>
		<g transform="matrix(1 0 0 1 28.1825 476.3855)" id="Layer_1">
<path style="stroke: none; stroke-width: 1; stroke-dasharray: none; stroke-linecap: butt; stroke-dashoffset: 0; stroke-linejoin: miter; stroke-miterlimit: 4; is-custom-font: none; font-file-url: none; fill: rgb(0,0,0); fill-rule: nonzero; opacity: 1;" transform=" translate(-539.9325, -988.1355)" d="M 543.713 997.184 h -0.054 c -0.477 0.722 -1.07 1.279 -1.779 1.682 c -0.71 0.402 -1.472 0.6 -2.293 0.6 c -1.779 0 -3.182 -0.621 -4.207 -1.868 c -1.027 -1.251 -1.538 -2.786 -1.538 -4.615 c 0 -1.726 0.523 -3.193 1.563 -4.413 c 1.042 -1.247 2.402 -1.87 4.077 -1.87 c 1.727 0 3.117 0.787 4.177 2.358 h 0.054 v -12.253 h 2.31 v 22.254 h -2.31 V 997.184 z M 539.942 997.419 c 1.215 0 2.166 -0.421 2.849 -1.259 c 0.7 -0.854 1.047 -1.894 1.047 -3.102 c 0 -1.196 -0.347 -2.214 -1.047 -3.049 c -0.683 -0.843 -1.634 -1.261 -2.849 -1.261 c -1.144 0 -2.065 0.431 -2.766 1.28 c -0.686 0.84 -1.024 1.846 -1.024 3.029 c 0 1.208 0.339 2.238 1.024 3.075 C 537.877 996.988 538.799 997.419 539.942 997.419 z" stroke-linecap="round"/>
</g>
		<g transform="matrix(1 0 0 1 42.6015 481.3315)" id="Layer_1">
<path style="stroke: none; stroke-width: 1; stroke-dasharray: none; stroke-linecap: butt; stroke-dashoffset: 0; stroke-linejoin: miter; stroke-miterlimit: 4; is-custom-font: none; font-file-url: none; fill: rgb(0,0,0); fill-rule: nonzero; opacity: 1;" transform=" translate(-554.3515, -993.0815)" d="M 549.789 988.547 c 1.244 -1.232 2.769 -1.849 4.563 -1.849 c 1.794 0 3.309 0.616 4.538 1.849 c 1.247 1.229 1.87 2.74 1.87 4.536 c 0 1.795 -0.623 3.306 -1.87 4.538 c -1.229 1.232 -2.744 1.844 -4.538 1.844 c -1.795 0 -3.319 -0.611 -4.563 -1.844 c -1.228 -1.232 -1.846 -2.743 -1.846 -4.538 C 547.943 991.287 548.562 989.776 549.789 988.547 z M 550.252 993.083 c 0 1.114 0.398 2.093 1.203 2.947 c 0.783 0.821 1.748 1.232 2.897 1.232 c 1.127 0 2.095 -0.411 2.895 -1.232 c 0.808 -0.854 1.205 -1.833 1.205 -2.947 c 0 -1.127 -0.397 -2.108 -1.205 -2.948 c -0.8 -0.82 -1.768 -1.232 -2.895 -1.232 c -1.149 0 -2.114 0.412 -2.897 1.232 C 550.65 990.975 550.252 991.956 550.252 993.083 z" stroke-linecap="round"/>
</g>
		<g transform="matrix(1 0 0 1 58.7425 481.178)" id="Layer_1">
<path style="stroke: none; stroke-width: 1; stroke-dasharray: none; stroke-linecap: butt; stroke-dashoffset: 0; stroke-linejoin: miter; stroke-miterlimit: 4; is-custom-font: none; font-file-url: none; fill: rgb(0,0,0); fill-rule: nonzero; opacity: 1;" transform=" translate(-570.4925, -992.928)" d="M 566.966 994.7 l 3.539 -8.308 l 3.517 8.308 l 3.483 -7.646 h 2.616 l -6.1 12.41 l -3.517 -8.021 l -3.539 8.021 l -6.101 -12.41 h 2.612 L 566.966 994.7 z" stroke-linecap="round"/>
</g>
		<g transform="matrix(1 0 0 1 74.6395 481.127)" id="Layer_1">
<path style="stroke: none; stroke-width: 1; stroke-dasharray: none; stroke-linecap: butt; stroke-dashoffset: 0; stroke-linejoin: miter; stroke-miterlimit: 4; is-custom-font: none; font-file-url: none; fill: rgb(0,0,0); fill-rule: nonzero; opacity: 1;" transform=" translate(-586.3895, -992.877)" d="M 583.581 988.672 h 0.054 c 0.338 -0.628 0.836 -1.119 1.487 -1.458 c 0.649 -0.345 1.359 -0.516 2.127 -0.516 c 0.788 0 1.451 0.12 2.002 0.356 c 0.547 0.243 0.988 0.582 1.314 1.027 c 0.334 0.447 0.578 0.986 0.721 1.629 c 0.147 0.641 0.219 1.372 0.219 2.195 v 7.151 h -2.312 v -6.87 c 0 -1.184 -0.168 -2.043 -0.513 -2.589 c -0.334 -0.565 -1.047 -0.85 -2.122 -0.85 c -0.394 0 -0.732 0.038 -1.005 0.115 c -0.273 0.077 -0.51 0.19 -0.713 0.335 c -0.209 0.146 -0.377 0.31 -0.52 0.5 c -0.132 0.186 -0.261 0.395 -0.38 0.613 c -0.052 0.123 -0.099 0.274 -0.142 0.463 c -0.045 0.188 -0.081 0.382 -0.114 0.574 c -0.033 0.197 -0.063 0.397 -0.076 0.593 c -0.022 0.197 -0.028 0.354 -0.028 0.472 v 1.131 v 5.513 h -2.306 v -12.003 h 2.306 V 988.672 z" stroke-linecap="round"/>
</g>
		<g transform="matrix(1 0 0 1 84.1905 476.181)" id="Layer_1">
<path style="stroke: none; stroke-width: 1; stroke-dasharray: none; stroke-linecap: butt; stroke-dashoffset: 0; stroke-linejoin: miter; stroke-miterlimit: 4; is-custom-font: none; font-file-url: none; fill: rgb(0,0,0); fill-rule: nonzero; opacity: 1;" transform=" translate(-595.9405, -987.931)" d="M 597.094 999.058 h -2.307 v -22.254 h 2.307 V 999.058 z" stroke-linecap="round"/>
</g>
		<g transform="matrix(1 0 0 1 93.9575 481.3315)" id="Layer_1">
<path style="stroke: none; stroke-width: 1; stroke-dasharray: none; stroke-linecap: butt; stroke-dashoffset: 0; stroke-linejoin: miter; stroke-miterlimit: 4; is-custom-font: none; font-file-url: none; fill: rgb(0,0,0); fill-rule: nonzero; opacity: 1;" transform=" translate(-605.7075, -993.0815)" d="M 601.144 988.547 c 1.247 -1.232 2.769 -1.849 4.566 -1.849 c 1.794 0 3.308 0.616 4.537 1.849 c 1.245 1.229 1.87 2.74 1.87 4.536 c 0 1.795 -0.625 3.306 -1.87 4.538 c -1.229 1.232 -2.743 1.844 -4.537 1.844 c -1.798 0 -3.319 -0.611 -4.566 -1.844 c -1.229 -1.232 -1.846 -2.743 -1.846 -4.538 C 599.298 991.287 599.914 989.776 601.144 988.547 z M 601.608 993.083 c 0 1.114 0.398 2.093 1.203 2.947 c 0.785 0.821 1.749 1.232 2.898 1.232 c 1.125 0 2.095 -0.411 2.895 -1.232 c 0.802 -0.854 1.207 -1.833 1.207 -2.947 c 0 -1.127 -0.405 -2.108 -1.207 -2.948 c -0.8 -0.82 -1.77 -1.232 -2.895 -1.232 c -1.149 0 -2.113 0.412 -2.898 1.232 C 602.007 990.975 601.608 991.956 601.608 993.083 z" stroke-linecap="round"/>
</g>
		<g transform="matrix(1 0 0 1 107.637 481.332)" id="Layer_1">
<path style="stroke: none; stroke-width: 1; stroke-dasharray: none; stroke-linecap: butt; stroke-dashoffset: 0; stroke-linejoin: miter; stroke-miterlimit: 4; is-custom-font: none; font-file-url: none; fill: rgb(0,0,0); fill-rule: nonzero; opacity: 1;" transform=" translate(-619.387, -993.082)" d="M 625.475 999.058 h -2.308 v -1.874 h -0.048 c -1.026 1.522 -2.388 2.281 -4.078 2.281 c -1.763 0 -3.162 -0.621 -4.207 -1.868 c -1.025 -1.251 -1.535 -2.786 -1.535 -4.615 c 0 -1.726 0.517 -3.193 1.563 -4.413 c 1.046 -1.247 2.409 -1.87 4.104 -1.87 c 1.709 0 3.092 0.787 4.153 2.358 h 0.048 v -2.002 h 2.308 V 999.058 z M 619.401 997.419 c 1.214 0 2.158 -0.421 2.842 -1.259 c 0.702 -0.854 1.055 -1.894 1.055 -3.102 c 0 -1.196 -0.353 -2.214 -1.055 -3.049 c -0.684 -0.843 -1.628 -1.261 -2.842 -1.261 c -1.148 0 -2.073 0.431 -2.768 1.28 c -0.689 0.84 -1.027 1.846 -1.027 3.029 c 0 1.208 0.338 2.238 1.027 3.075 C 617.328 996.988 618.253 997.419 619.401 997.419 z" stroke-linecap="round"/>
</g>
		<g transform="matrix(1 0 0 1 121.893 476.3855)" id="Layer_1">
<path style="stroke: none; stroke-width: 1; stroke-dasharray: none; stroke-linecap: butt; stroke-dashoffset: 0; stroke-linejoin: miter; stroke-miterlimit: 4; is-custom-font: none; font-file-url: none; fill: rgb(0,0,0); fill-rule: nonzero; opacity: 1;" transform=" translate(-633.643, -988.1355)" d="M 637.423 997.184 h -0.049 c -0.479 0.722 -1.072 1.279 -1.781 1.682 s -1.477 0.6 -2.295 0.6 c -1.778 0 -3.181 -0.621 -4.202 -1.868 c -1.028 -1.251 -1.543 -2.786 -1.543 -4.615 c 0 -1.726 0.52 -3.193 1.567 -4.413 c 1.039 -1.247 2.399 -1.87 4.073 -1.87 c 1.729 0 3.12 0.787 4.181 2.358 h 0.049 v -12.253 h 2.31 v 22.254 h -2.31 V 997.184 z M 633.656 997.419 c 1.212 0 2.156 -0.421 2.841 -1.259 c 0.704 -0.854 1.056 -1.894 1.056 -3.102 c 0 -1.196 -0.352 -2.214 -1.056 -3.049 c -0.685 -0.843 -1.629 -1.261 -2.841 -1.261 c -1.148 0 -2.07 0.431 -2.769 1.28 c -0.685 0.84 -1.026 1.846 -1.026 3.029 c 0 1.208 0.342 2.238 1.026 3.075 C 631.586 996.988 632.508 997.419 633.656 997.419 z" stroke-linecap="round"/>
</g>
		<g transform="matrix(1 0 0 1 133.1105 486.2285)" id="Layer_1">
<path style="stroke: none; stroke-width: 1; stroke-dasharray: none; stroke-linecap: butt; stroke-dashoffset: 0; stroke-linejoin: miter; stroke-miterlimit: 4; is-custom-font: none; font-file-url: none; fill: rgb(0,0,0); fill-rule: nonzero; opacity: 1;" transform=" translate(-644.8605, -997.9785)" d="M 646.348 997.979 c 0 0.414 -0.146 0.763 -0.437 1.052 c -0.291 0.291 -0.643 0.434 -1.055 0.434 c -0.407 0 -0.759 -0.143 -1.046 -0.434 c -0.291 -0.289 -0.437 -0.638 -0.437 -1.052 c 0 -0.392 0.146 -0.741 0.437 -1.039 c 0.287 -0.296 0.639 -0.448 1.046 -0.448 c 0.412 0 0.764 0.152 1.055 0.448 C 646.201 997.238 646.348 997.588 646.348 997.979 z" stroke-linecap="round"/>
</g>
		<g transform="matrix(1 0 0 1 142.3425 481.332)" id="Layer_1">
<path style="stroke: none; stroke-width: 1; stroke-dasharray: none; stroke-linecap: butt; stroke-dashoffset: 0; stroke-linejoin: miter; stroke-miterlimit: 4; is-custom-font: none; font-file-url: none; fill: rgb(0,0,0); fill-rule: nonzero; opacity: 1;" transform=" translate(-654.0925, -993.082)" d="M 658.965 990.465 c -0.957 -1.073 -2.108 -1.612 -3.438 -1.612 c -1.113 0 -2.063 0.418 -2.844 1.256 c -0.771 0.854 -1.158 1.841 -1.158 2.95 c 0 1.249 0.387 2.265 1.158 3.052 c 0.803 0.801 1.803 1.205 2.996 1.205 c 1.23 0 2.329 -0.532 3.286 -1.591 v 2.948 c -0.997 0.527 -2.095 0.792 -3.312 0.792 c -1.778 0 -3.298 -0.6 -4.563 -1.817 c -1.25 -1.198 -1.87 -2.695 -1.87 -4.49 c 0 -1.843 0.62 -3.381 1.87 -4.61 c 1.246 -1.232 2.814 -1.849 4.693 -1.849 c 1.233 0 2.288 0.265 3.182 0.794 V 990.465 z" stroke-linecap="round"/>
</g>
		<g transform="matrix(1 0 0 1 155.032 481.3315)" id="Layer_1">
<path style="stroke: none; stroke-width: 1; stroke-dasharray: none; stroke-linecap: butt; stroke-dashoffset: 0; stroke-linejoin: miter; stroke-miterlimit: 4; is-custom-font: none; font-file-url: none; fill: rgb(0,0,0); fill-rule: nonzero; opacity: 1;" transform=" translate(-666.782, -993.0815)" d="M 662.22 988.547 c 1.245 -1.232 2.769 -1.849 4.563 -1.849 c 1.794 0 3.304 0.616 4.535 1.849 c 1.253 1.229 1.874 2.74 1.874 4.536 c 0 1.795 -0.621 3.306 -1.874 4.538 c -1.231 1.232 -2.741 1.844 -4.535 1.844 c -1.795 0 -3.318 -0.611 -4.563 -1.844 c -1.236 -1.232 -1.848 -2.743 -1.848 -4.538 C 660.372 991.287 660.983 989.776 662.22 988.547 z M 662.678 993.083 c 0 1.114 0.403 2.093 1.204 2.947 c 0.788 0.821 1.755 1.232 2.901 1.232 c 1.125 0 2.091 -0.411 2.897 -1.232 c 0.8 -0.854 1.203 -1.833 1.203 -2.947 c 0 -1.127 -0.403 -2.108 -1.203 -2.948 c -0.807 -0.82 -1.772 -1.232 -2.897 -1.232 c -1.146 0 -2.113 0.412 -2.901 1.232 C 663.081 990.975 662.678 991.956 662.678 993.083 z" stroke-linecap="round"/>
</g>
		<g transform="matrix(1 0 0 1 171.801 481.128)" id="Layer_1">
<path style="stroke: none; stroke-width: 1; stroke-dasharray: none; stroke-linecap: butt; stroke-dashoffset: 0; stroke-linejoin: miter; stroke-miterlimit: 4; is-custom-font: none; font-file-url: none; fill: rgb(0,0,0); fill-rule: nonzero; opacity: 1;" transform=" translate(-683.551, -992.878)" d="M 677.521 988.568 h 0.051 c 0.345 -0.547 0.804 -0.994 1.376 -1.348 c 0.573 -0.349 1.179 -0.522 1.808 -0.522 c 1.486 0 2.643 0.713 3.462 2.132 c 0.376 -0.651 0.892 -1.172 1.551 -1.554 c 0.658 -0.386 1.371 -0.578 2.141 -0.578 c 2.651 0 3.974 1.728 3.974 5.177 v 7.183 h -2.308 v -6.796 c 0 -0.306 -0.011 -0.611 -0.037 -0.912 c -0.024 -0.296 -0.075 -0.587 -0.141 -0.868 s -0.171 -0.542 -0.31 -0.782 c -0.134 -0.238 -0.325 -0.455 -0.563 -0.643 c -0.307 -0.204 -0.701 -0.308 -1.179 -0.308 c -0.479 0 -0.89 0.104 -1.23 0.308 c -0.324 0.188 -0.578 0.426 -0.759 0.703 c -0.177 0.286 -0.316 0.643 -0.421 1.065 c -0.101 0.431 -0.163 0.816 -0.195 1.155 c -0.023 0.342 -0.034 0.736 -0.034 1.177 v 5.9 h -2.308 v -6.36 c 0 -0.411 -0.014 -0.748 -0.026 -1.022 c -0.019 -0.274 -0.069 -0.613 -0.151 -1.03 c -0.087 -0.439 -0.198 -0.768 -0.338 -0.972 c -0.136 -0.241 -0.346 -0.45 -0.639 -0.64 c -0.289 -0.19 -0.64 -0.284 -1.053 -0.284 c -1.179 0 -1.942 0.515 -2.28 1.537 c -0.153 0.486 -0.259 0.932 -0.304 1.36 c -0.056 0.428 -0.086 0.934 -0.086 1.511 v 5.9 h -2.304 v -12.003 h 2.304 V 988.568 z" stroke-linecap="round"/>
</g>
		<g transform="matrix(1 0 0 1 -216.936 479.462)" id="Layer_1">
<rect style="stroke: none; stroke-width: 1; stroke-dasharray: none; stroke-linecap: butt; stroke-dashoffset: 0; stroke-linejoin: miter; stroke-miterlimit: 4; is-custom-font: none; font-file-url: none; fill: rgb(0,0,0); fill-rule: nonzero; opacity: 1;" x="-16.331" y="-0.798" rx="0" ry="0" width="32.662" height="1.596"/>
</g>
		<g transform="matrix(1 0 0 1 217.587 479.462)" id="Layer_1">
<rect style="stroke: none; stroke-width: 1; stroke-dasharray: none; stroke-linecap: butt; stroke-dashoffset: 0; stroke-linejoin: miter; stroke-miterlimit: 4; is-custom-font: none; font-file-url: none; fill: rgb(0,0,0); fill-rule: nonzero; opacity: 1;" x="-16.328" y="-0.798" rx="0" ry="0" width="32.656" height="1.596"/>
</g>
		<g transform="matrix(1 0 0 1 21.7487 -100.2791)" id="Layer_1">
<path style="stroke: none; stroke-width: 1; stroke-dasharray: none; stroke-linecap: butt; stroke-dashoffset: 0; stroke-linejoin: miter; stroke-miterlimit: 4; is-custom-font: none; font-file-url: none; fill: rgb(0,0,0); fill-rule: nonzero; opacity: 1;" transform=" translate(-533.4988, -411.4709)" d="M 310 703 c 0 0 38.696 0 57.75 0 c 1.681 0 2.25 -0.087 2.25 -1.765 c 0 -95.073 0 -196.308 0 -291.379 c 0 -3.186 0.935 -0.66 -1.03 0.714 c 1.022 -0.714 2.254 -1.431 3.277 -2.145 c 6.242 -4.357 12.589 -8.717 18.834 -13.074 c 22.09 -15.425 44.233 -30.848 66.327 -46.271 c 34.417 -24.027 68.82 -48.057 103.237 -72.084 c -1.545 -0.886 -4.646 -1.772 -4.646 -2.659 c 0 100.407 0 200.813 0 301.221 c 0 41.256 0 82.513 0 123.769 c 0 -1.027 2.131 -2.327 3.156 -2.327 c -32.61 0 -65.22 0 -97.831 0 c 1.027 0 0.675 1.3 3.675 2.327 c 0 -88.877 0 -177.752 0 -266.627 c 0 -101.854 0 -203.706 0 -305.557 c 0 -1.388 0 -2.774 0 -4.16 c -3 0.726 -3.801 1.452 -5.554 2.178 c 33.911 32.371 67.671 64.742 101.584 97.111 c 21.599 20.618 43.125 41.236 64.727 61.852 c 5.896 5.63 11.756 11.258 17.652 16.886 c 0.955 0.913 1.69 1.826 2.648 2.736 c -1.532 -1.46 -1.058 -2.879 -1.058 0.252 c 0 104.701 0 209.401 0 314.102 c 0 4.39 0 8.78 0 13.171 c 0 1.679 1.8 2.729 3.477 2.729 c 36.154 0 72.313 0 108.466 0 c -0.886 0 -1.773 -2.914 -2.66 -4.459 c -7.368 13.096 -14.733 26.28 -22.102 39.376 c -4.389 7.798 -8.772 15.642 -13.161 23.439 c -0.963 1.713 -1.926 3.822 -2.888 5.534 c 1.114 -1.98 3.738 -0.891 -0.728 -0.891 c -32.23 0 -64.464 0 -96.699 0 c 1.027 0 1.295 1.3 3.295 2.327 c 0 -96.08 0 -192.159 0 -288.239 c 0 -1.041 0 -2.083 0 -3.123 c 0 -2.384 -2.713 -3.774 -4.744 -2.66 c -43.953 24.102 -88.341 48.206 -132.293 72.31 c -0.942 0.519 -1.963 1.597 -1.963 2.66 c 0 64.512 0 129.021 0 193.532 c 0 1.679 2.169 2.193 3.845 2.193 c 17.723 0 35.155 0 54.155 0 c 3 0 3 -5 0 -5 c -19 0 -36.433 0 -54.155 0 c 1.027 2 2.155 1.779 2.155 2.807 c 0 -50.919 0 -101.836 0 -152.755 c 0 -11.039 0 -22.081 0 -33.119 c 0 -2.319 0 -4.638 0 -6.957 c 0 0.203 -2.609 2.807 1.443 0.586 c 23.535 -12.906 47.299 -25.813 70.834 -38.719 c 19.583 -10.74 39.97 -21.479 59.553 -32.219 c -1.546 -0.887 -3.83 -1.773 -3.83 -2.659 c 0 96.08 0 192.159 0 288.239 c 0 1.041 0 2.083 0 3.123 c 0 1.679 0.024 3.673 1.705 3.673 c 33.318 0 66.636 0 99.954 0 c 1.07 0 2.13 -0.88 2.658 -1.822 c 12.765 -22.685 25.524 -46.114 38.285 -68.8 c 1.139 -2.025 -0.298 -5.378 -2.66 -5.378 c -36.153 0 -72.312 0 -108.466 0 c 1.026 2 3.523 3.244 3.523 4.271 c 0 -101.421 0 -202.845 0 -304.267 c 0 -7.07 0 -14.14 0 -21.21 c 0 -2.48 0.268 -5.021 -1.676 -6.874 c -12.999 -12.409 -26.114 -24.817 -39.11 -37.227 c -44.16 -42.15 -88.37 -84.301 -132.53 -126.452 c -5.042 -4.812 -10.232 -9.625 -15.275 -14.437 c -1.925 -1.839 -5.408 -0.556 -5.408 2.178 c 0 88.876 0 177.752 0 266.627 c 0 101.853 0 203.705 0 305.556 c 0 1.389 0 2.774 0 4.16 c 0 1.679 1.649 3.673 3.325 3.673 c 32.611 0 65.221 0 97.831 0 c 1.678 0 3.844 -1.994 3.844 -3.673 c 0 -100.406 0 -200.813 0 -301.22 c 0 -41.257 0 -82.513 0 -123.77 c 0 -2.192 -3.053 -4.031 -5.018 -2.659 c -39.937 27.883 -80.068 55.764 -120.004 83.646 c -21.216 14.809 -42.856 29.618 -64.072 44.429 c -2.13 1.487 -9.906 4.939 -9.906 8.211 c 0 3.746 0 7.49 0 11.237 c 0 91.956 0 190.075 0 282.033 c 2 -1.027 2.723 -1.235 3.75 -4.235 c -19.054 0 -38.75 0 -57.75 0 C 306 697 306 703 310 703 C 310 703 306 703 310 703 z" stroke-linecap="round"/>
</g>
		<g transform="matrix(1 0 0 1 -218.2185 289.882)" id="Layer_1">
<path style="stroke: none; stroke-width: 1; stroke-dasharray: none; stroke-linecap: butt; stroke-dashoffset: 0; stroke-linejoin: miter; stroke-miterlimit: 4; is-custom-font: none; font-file-url: none; fill: rgb(0,0,0); fill-rule: nonzero; opacity: 1;" transform=" translate(-293.5315, -801.632)" d="M 270.464 831.349 v -59.434 h 25.352 c 11.315 0 16.956 4.75 16.956 14.251 c 0 7.745 -5.52 13.459 -16.583 17.168 l 20.41 28.015 h -10.141 l -18.905 -26.723 v -5.032 c 11.36 -1.796 17.036 -6.16 17.036 -13.085 c 0 -5.487 -3.162 -8.233 -9.479 -8.233 h -16.951 v 53.073 H 270.464 z" stroke-linecap="round"/>
</g>
		<g transform="matrix(1 0 0 1 -167.3125 289.88)" id="Layer_1">
<path style="stroke: none; stroke-width: 1; stroke-dasharray: none; stroke-linecap: butt; stroke-dashoffset: 0; stroke-linejoin: miter; stroke-miterlimit: 4; is-custom-font: none; font-file-url: none; fill: rgb(0,0,0); fill-rule: nonzero; opacity: 1;" transform=" translate(-344.4375, -801.63)" d="M 363.566 771.915 v 6.234 h -31.176 v 19.954 h 29.731 v 6.233 h -29.731 v 20.779 h 31.789 v 6.232 h -39.483 v -59.434 H 363.566 z" stroke-linecap="round"/>
</g>
		<g transform="matrix(1 0 0 1 -112.397 289.882)" id="Layer_1">
<path style="stroke: none; stroke-width: 1; stroke-dasharray: none; stroke-linecap: butt; stroke-dashoffset: 0; stroke-linejoin: miter; stroke-miterlimit: 4; is-custom-font: none; font-file-url: none; fill: rgb(0,0,0); fill-rule: nonzero; opacity: 1;" transform=" translate(-399.353, -801.632)" d="M 377.782 831.349 H 369.8 l 25.231 -59.434 h 8.512 l 25.363 59.434 h -8.524 l -7.694 -18.71 h -19.655 l 2.122 -6.227 h 14.958 l -11.095 -26.932 L 377.782 831.349 z" stroke-linecap="round"/>
</g>
		<g transform="matrix(1 0 0 1 -55.3595 289.881)" id="Layer_1">
<path style="stroke: none; stroke-width: 1; stroke-dasharray: none; stroke-linecap: butt; stroke-dashoffset: 0; stroke-linejoin: miter; stroke-miterlimit: 4; is-custom-font: none; font-file-url: none; fill: rgb(0,0,0); fill-rule: nonzero; opacity: 1;" transform=" translate(-456.3905, -801.631)" d="M 444.687 771.915 v 53.201 h 31.1 v 6.232 h -38.793 v -59.434 H 444.687 z" stroke-linecap="round"/>
</g>
		<g transform="matrix(1 0 0 1 13.7065 289.88)" id="Layer_1">
<path style="stroke: none; stroke-width: 1; stroke-dasharray: none; stroke-linecap: butt; stroke-dashoffset: 0; stroke-linejoin: miter; stroke-miterlimit: 4; is-custom-font: none; font-file-url: none; fill: rgb(0,0,0); fill-rule: nonzero; opacity: 1;" transform=" translate(-525.4565, -801.63)" d="M 544.568 771.915 v 6.234 h -31.172 v 19.954 h 29.72 v 6.233 h -29.72 v 20.779 h 31.802 v 6.232 h -39.483 v -59.434 H 544.568 z" stroke-linecap="round"/>
</g>
		<g transform="matrix(1 0 0 1 64.8275 289.8785)" id="Layer_1">
<path style="stroke: none; stroke-width: 1; stroke-dasharray: none; stroke-linecap: butt; stroke-dashoffset: 0; stroke-linejoin: miter; stroke-miterlimit: 4; is-custom-font: none; font-file-url: none; fill: rgb(0,0,0); fill-rule: nonzero; opacity: 1;" transform=" translate(-576.5775, -801.6285)" d="M 555.996 829.265 v -7.062 c 6.242 2.22 12.981 3.319 20.21 3.319 c 10.22 0 15.339 -3.736 15.339 -11.207 c 0 -6.38 -3.779 -9.565 -11.316 -9.565 h -7.649 c -12.443 0 -18.652 -5.413 -18.652 -16.207 c 0 -11.356 7.958 -17.043 23.891 -17.043 c 6.936 0 13.374 0.828 19.335 2.491 v 7.063 c -5.961 -2.214 -12.399 -3.32 -19.335 -3.32 c -10.802 0 -16.197 3.602 -16.197 10.809 c 0 6.374 3.65 9.561 10.959 9.561 h 7.649 c 12.663 0 18.997 5.391 18.997 16.212 c 0 11.629 -7.673 17.441 -23.02 17.441 C 568.978 831.757 562.238 830.928 555.996 829.265 z" stroke-linecap="round"/>
</g>
		<g transform="matrix(1 0 0 1 116.2595 289.8815)" id="Layer_1">
<path style="stroke: none; stroke-width: 1; stroke-dasharray: none; stroke-linecap: butt; stroke-dashoffset: 0; stroke-linejoin: miter; stroke-miterlimit: 4; is-custom-font: none; font-file-url: none; fill: rgb(0,0,0); fill-rule: nonzero; opacity: 1;" transform=" translate(-628.0095, -801.6315)" d="M 650.559 771.915 v 6.234 h -18.704 v 53.199 h -7.698 v -53.199 H 605.46 v -6.234 H 650.559 z" stroke-linecap="round"/>
</g>
		<g transform="matrix(1 0 0 1 165.2365 289.882)" id="Layer_1">
<path style="stroke: none; stroke-width: 1; stroke-dasharray: none; stroke-linecap: butt; stroke-dashoffset: 0; stroke-linejoin: miter; stroke-miterlimit: 4; is-custom-font: none; font-file-url: none; fill: rgb(0,0,0); fill-rule: nonzero; opacity: 1;" transform=" translate(-676.9865, -801.632)" d="M 655.416 831.349 h -7.979 l 25.223 -59.434 h 8.525 l 25.351 59.434 h -8.516 l -7.69 -18.71 h -19.655 l 2.106 -6.227 h 14.971 L 676.66 779.48 L 655.416 831.349 z" stroke-linecap="round"/>
</g>
		<g transform="matrix(1 0 0 1 214.2195 289.8815)" id="Layer_1">
<path style="stroke: none; stroke-width: 1; stroke-dasharray: none; stroke-linecap: butt; stroke-dashoffset: 0; stroke-linejoin: miter; stroke-miterlimit: 4; is-custom-font: none; font-file-url: none; fill: rgb(0,0,0); fill-rule: nonzero; opacity: 1;" transform=" translate(-725.9695, -801.6315)" d="M 748.515 771.915 v 6.234 h -18.696 v 53.199 h -7.687 v -53.199 h -18.708 v -6.234 H 748.515 z" stroke-linecap="round"/>
</g>
		<g transform="matrix(1 0 0 1 265.6505 289.88)" id="Layer_1">
<path style="stroke: none; stroke-width: 1; stroke-dasharray: none; stroke-linecap: butt; stroke-dashoffset: 0; stroke-linejoin: miter; stroke-miterlimit: 4; is-custom-font: none; font-file-url: none; fill: rgb(0,0,0); fill-rule: nonzero; opacity: 1;" transform=" translate(-777.4005, -801.63)" d="M 796.514 771.915 v 6.234 h -31.176 v 19.954 h 29.731 v 6.233 h -29.731 v 20.779 h 31.806 v 6.232 h -39.487 v -59.434 H 796.514 z" stroke-linecap="round"/>
</g>
		<g transform="matrix(1 0 0 1 -162.8775 351.3455)" id="Layer_1">
<path style="stroke: none; stroke-width: 1; stroke-dasharray: none; stroke-linecap: butt; stroke-dashoffset: 0; stroke-linejoin: miter; stroke-miterlimit: 4; is-custom-font: none; font-file-url: none; fill: rgb(0,0,0); fill-rule: nonzero; opacity: 1;" transform=" translate(-348.8725, -863.0955)" d="M 353.634 869.314 v 2.787 h -9.523 v -18.011 h 2.892 v 15.011 c 0 0.137 0.077 0.213 0.217 0.213 H 353.634 z" stroke-linecap="round"/>
</g>
		<g transform="matrix(1 0 0 1 -121.516 351.3445)" id="Layer_1">
<path style="stroke: none; stroke-width: 1; stroke-dasharray: none; stroke-linecap: butt; stroke-dashoffset: 0; stroke-linejoin: miter; stroke-miterlimit: 4; is-custom-font: none; font-file-url: none; fill: rgb(0,0,0); fill-rule: nonzero; opacity: 1;" transform=" translate(-390.234, -863.0945)" d="M 390.238 853.895 c 5.283 0 9.539 4.104 9.539 9.197 c 0 5.095 -4.256 9.202 -9.539 9.202 c -5.275 0 -9.547 -4.107 -9.547 -9.202 C 380.691 857.998 384.962 853.895 390.238 853.895 z M 390.238 869.51 c 3.654 0 6.61 -2.879 6.61 -6.418 c 0 -3.529 -2.957 -6.386 -6.61 -6.386 c -3.671 0 -6.655 2.856 -6.655 6.386 C 383.583 866.631 386.567 869.51 390.238 869.51 z" stroke-linecap="round"/>
</g>
		<g transform="matrix(1 0 0 1 -76.1735 351.3435)" id="Layer_1">
<path style="stroke: none; stroke-width: 1; stroke-dasharray: none; stroke-linecap: butt; stroke-dashoffset: 0; stroke-linejoin: miter; stroke-miterlimit: 4; is-custom-font: none; font-file-url: none; fill: rgb(0,0,0); fill-rule: nonzero; opacity: 1;" transform=" translate(-435.5765, -863.0935)" d="M 444.222 868.688 c -1.304 1.901 -3.919 3.605 -7.75 3.605 c -5.278 0 -9.542 -4.107 -9.542 -9.202 c 0 -5.094 4.264 -9.197 9.542 -9.197 c 3.017 0 5.348 1.371 6.402 2.238 l -1.877 2.138 c -1.111 -0.919 -2.88 -1.564 -4.525 -1.564 c -3.646 0 -6.638 2.856 -6.638 6.386 c 0 3.539 2.992 6.418 6.787 6.418 c 2.138 0 3.839 -0.793 4.641 -1.78 v -2.351 c -0.356 -0.023 -0.754 -0.057 -1.151 -0.057 h -4.412 v -2.728 h 8.524 V 868.688 z" stroke-linecap="round"/>
</g>
		<g transform="matrix(1 0 0 1 -31.239 351.3445)" id="Layer_1">
<path style="stroke: none; stroke-width: 1; stroke-dasharray: none; stroke-linecap: butt; stroke-dashoffset: 0; stroke-linejoin: miter; stroke-miterlimit: 4; is-custom-font: none; font-file-url: none; fill: rgb(0,0,0); fill-rule: nonzero; opacity: 1;" transform=" translate(-480.511, -863.0945)" d="M 480.511 853.895 c 5.292 0 9.547 4.104 9.547 9.197 c 0 5.095 -4.256 9.202 -9.547 9.202 c -5.282 0 -9.547 -4.107 -9.547 -9.202 C 470.964 857.998 475.229 853.895 480.511 853.895 z M 480.511 869.51 c 3.659 0 6.64 -2.879 6.64 -6.418 c 0 -3.529 -2.981 -6.386 -6.64 -6.386 c -3.669 0 -6.646 2.856 -6.646 6.386 C 473.865 866.631 476.842 869.51 480.511 869.51 z" stroke-linecap="round"/>
</g>
		<g transform="matrix(1 0 0 1 13.092 351.3465)" id="Layer_1">
<path style="stroke: none; stroke-width: 1; stroke-dasharray: none; stroke-linecap: butt; stroke-dashoffset: 0; stroke-linejoin: miter; stroke-miterlimit: 4; is-custom-font: none; font-file-url: none; fill: rgb(0,0,0); fill-rule: nonzero; opacity: 1;" transform=" translate(-524.842, -863.0965)" d="M 517.195 854.091 h 5.939 c 5.204 0 9.355 4.079 9.355 9.001 c 0 4.958 -4.151 9.01 -9.355 9.01 h -5.939 V 854.091 z M 523.135 869.314 c 3.644 0 6.463 -2.708 6.463 -6.223 c 0 -3.502 -2.775 -6.193 -6.405 -6.193 h -2.929 c -0.092 0 -0.145 0.024 -0.145 0.117 v 12.158 c 0 0.096 0.053 0.141 0.145 0.141 H 523.135 z" stroke-linecap="round"/>
</g>
		<g transform="matrix(1 0 0 1 52.835 351.3465)" id="Layer_1">
<path style="stroke: none; stroke-width: 1; stroke-dasharray: none; stroke-linecap: butt; stroke-dashoffset: 0; stroke-linejoin: miter; stroke-miterlimit: 4; is-custom-font: none; font-file-url: none; fill: rgb(0,0,0); fill-rule: nonzero; opacity: 1;" transform=" translate(-564.585, -863.0965)" d="M 562.627 869.174 c 0 0.096 0.049 0.141 0.137 0.141 h 6.675 v 2.787 h -9.708 v -18.011 h 9.708 v 2.808 h -6.675 c -0.088 0 -0.137 0.024 -0.137 0.117 v 4.521 c 0 0.092 0.049 0.112 0.137 0.112 h 6.675 v 2.816 h -6.675 c -0.088 0 -0.137 0.051 -0.137 0.128 V 869.174 z" stroke-linecap="round"/>
</g>
		<g transform="matrix(1 0 0 1 90.078 351.358)" id="Layer_1">
<path style="stroke: none; stroke-width: 1; stroke-dasharray: none; stroke-linecap: butt; stroke-dashoffset: 0; stroke-linejoin: miter; stroke-miterlimit: 4; is-custom-font: none; font-file-url: none; fill: rgb(0,0,0); fill-rule: nonzero; opacity: 1;" transform=" translate(-601.828, -863.108)" d="M 599.178 868.019 c 0.465 0.862 1.248 1.508 2.547 1.508 c 1.292 0 2.435 -1.119 2.435 -2.375 c 0 -1.748 -1.544 -2.422 -2.924 -2.977 c -2.591 -1.059 -4.601 -2.161 -4.601 -5.118 c 0 -2.977 2.262 -5.134 5.279 -5.134 c 1.845 0 3.733 0.999 4.509 2.708 l -2.616 1.234 c -0.404 -0.798 -1.275 -1.135 -1.993 -1.135 c -1.224 0 -2.255 1.056 -2.255 2.19 c 0 1.412 0.982 1.869 2.175 2.442 c 3.722 1.561 5.287 2.696 5.287 5.788 c 0 2.856 -2.392 5.143 -5.26 5.143 h -0.096 c -2.584 0 -4.505 -1.604 -5.011 -3.505 C 597.518 868.544 598.327 868.287 599.178 868.019 z" stroke-linecap="round"/>
</g>
		<g transform="matrix(1 0 0 1 123.874 351.356)" id="Layer_1">
<path style="stroke: none; stroke-width: 1; stroke-dasharray: none; stroke-linecap: butt; stroke-dashoffset: 0; stroke-linejoin: miter; stroke-miterlimit: 4; is-custom-font: none; font-file-url: none; fill: rgb(0,0,0); fill-rule: nonzero; opacity: 1;" transform=" translate(-635.624, -863.106)" d="M 637.064 854.111 v 17.99 h -2.88 v -17.99 H 637.064 z" stroke-linecap="round"/>
</g>
		<g transform="matrix(1 0 0 1 161.267 351.3435)" id="Layer_1">
<path style="stroke: none; stroke-width: 1; stroke-dasharray: none; stroke-linecap: butt; stroke-dashoffset: 0; stroke-linejoin: miter; stroke-miterlimit: 4; is-custom-font: none; font-file-url: none; fill: rgb(0,0,0); fill-rule: nonzero; opacity: 1;" transform=" translate(-673.017, -863.0935)" d="M 681.658 868.688 c -1.308 1.901 -3.911 3.605 -7.742 3.605 c -5.294 0 -9.543 -4.107 -9.543 -9.202 c 0 -5.094 4.249 -9.197 9.543 -9.197 c 3.018 0 5.355 1.371 6.391 2.238 l -1.857 2.138 c -1.127 -0.919 -2.889 -1.564 -4.533 -1.564 c -3.638 0 -6.618 2.856 -6.618 6.386 c 0 3.539 2.98 6.418 6.76 6.418 c 2.137 0 3.83 -0.793 4.636 -1.78 v -2.351 c -0.336 -0.023 -0.737 -0.057 -1.146 -0.057 h -4.408 v -2.728 h 8.52 V 868.688 z" stroke-linecap="round"/>
</g>
		<g transform="matrix(1 0 0 1 204.4705 351.356)" id="Layer_1">
<path style="stroke: none; stroke-width: 1; stroke-dasharray: none; stroke-linecap: butt; stroke-dashoffset: 0; stroke-linejoin: miter; stroke-miterlimit: 4; is-custom-font: none; font-file-url: none; fill: rgb(0,0,0); fill-rule: nonzero; opacity: 1;" transform=" translate(-716.2205, -863.106)" d="M 711.995 854.111 c 2.612 4.011 5.263 8.019 7.879 12.058 c 0.232 0.337 0.444 0.666 0.697 0.982 v -13.04 h 2.924 v 17.99 h -3.08 l -7.825 -12.01 c -0.221 -0.332 -0.502 -0.654 -0.727 -0.987 c 0 0.458 -0.024 0.932 -0.024 1.452 v 11.545 h -2.893 v -17.99 H 711.995 z" stroke-linecap="round"/>
</g>
</g>
</g>
</svg>