<svg xmlns="http://www.w3.org/2000/svg" xml:space="preserve" width="1000" height="1000"><rect width="100%" height="100%" fill="rgba(255,255,255,0)"/><g><rect width="1024" height="1024" x="-512" y="-512" rx="0" ry="0" style="stroke:none;stroke-width:1;stroke-dasharray:none;stroke-linecap:butt;stroke-dashoffset:0;stroke-linejoin:miter;stroke-miterlimit:4;is-custom-font:none;font-file-url:none;fill:none;fill-rule:nonzero;opacity:1" transform="matrix(.977 0 0 1.3924 500.224 655.117)"/><path d="M332.267 979.725h4c3.144 0 5.735.83 7.769 2.486 2.053 1.641 3.076 3.999 3.076 7.077 0 3.162-1.016 5.583-3.052 7.253-2.031 1.68-4.657 2.517-7.869 2.517h-3.925v-19.333zm2.41 17.127h.848c1.248 0 2.426-.123 3.542-.371 1.109-.248 2.075-.667 2.907-1.254a6.485 6.485 0 0 0 1.986-2.31c.497-.951.741-2.125.741-3.525 0-1.387-.24-2.57-.728-3.55-.488-.984-1.167-1.749-2.04-2.298a9.463 9.463 0 0 0-2.886-1.232c-1.047-.255-2.222-.383-3.522-.383h-.848v14.923zM350.651 993.441c.035 1.078.376 2.007 1.027 2.796.664.784 1.53 1.182 2.586 1.182.839 0 1.528-.192 2.066-.577.537-.388 1.048-.97 1.525-1.757l1.951 1.1a6.298 6.298 0 0 1-2.324 2.413 6.27 6.27 0 0 1-3.241.867c-1.797 0-3.231-.595-4.31-1.793-1.057-1.211-1.584-2.72-1.584-4.515 0-1.892.501-3.448 1.509-4.661.991-1.198 2.437-1.798 4.333-1.798 1.846 0 3.238.6 4.18 1.798.955 1.191 1.437 2.722 1.437 4.587v.358h-9.155zm6.846-1.745c-.137-.921-.488-1.65-1.064-2.189-.575-.539-1.321-.809-2.242-.809-.446 0-.863.069-1.243.219a3.212 3.212 0 0 0-1.029.628 3.612 3.612 0 0 0-.744.963 3.933 3.933 0 0 0-.396 1.188h6.718zM366.6 989.801c-.343-.698-.855-1.052-1.539-1.052-.323 0-.615.115-.872.344-.256.236-.384.513-.384.838 0 .306.096.565.295.781.195.217.462.414.805.603.223.101.396.183.515.242.119.061.314.152.591.27.13.07.255.123.358.154.1.034.178.07.23.104.852.393 1.528.845 2.027 1.357.496.515.741 1.198.741 2.053 0 1.128-.412 2.076-1.231 2.844-.807.751-1.768 1.127-2.898 1.127-.46 0-.907-.063-1.334-.19a4.75 4.75 0 0 1-1.191-.539 4.219 4.219 0 0 1-.973-.845 3.803 3.803 0 0 1-.654-1.114l1.974-.899c.563 1.024 1.289 1.542 2.178 1.542a1.84 1.84 0 0 0 1-.298c.309-.198.535-.443.68-.744.145-.299.176-.623.09-.972-.084-.352-.353-.682-.795-.989l-2.257-1.203a9.262 9.262 0 0 1-1.022-.619 3.39 3.39 0 0 1-.719-.651 2.513 2.513 0 0 1-.425-.772 3.188 3.188 0 0 1-.138-.984c0-.975.34-1.793 1.024-2.46.684-.688 1.521-1.027 2.512-1.027 1.504 0 2.599.7 3.283 2.104l-1.871.995zM374.879 981.57a1.5 1.5 0 0 1-.462 1.103c-.308.311-.682.459-1.126.459s-.82-.148-1.128-.459a1.508 1.508 0 0 1-.462-1.103c0-.445.155-.823.462-1.141.308-.317.685-.472 1.128-.472s.818.154 1.126.472c.31.318.462.696.462 1.141zm-.435 17.488h-2.306v-12.003h2.306v12.003zM389.368 998.824c0 2.26-.428 4.012-1.284 5.258-.853 1.23-2.376 1.849-4.566 1.849-1.689 0-3.077-.491-4.151-1.461-1.06-.977-1.605-2.301-1.639-3.98h2.305c0 1.081.327 1.913.985 2.503.661.592 1.528.888 2.605.888 1.316 0 2.215-.387 2.704-1.157.491-.77.73-1.855.73-3.258v-2.281h-.051a5.165 5.165 0 0 1-1.783 1.682c-.709.402-1.473.6-2.292.6-1.779 0-3.179-.621-4.205-1.868-1.027-1.251-1.54-2.786-1.54-4.615 0-1.726.522-3.193 1.566-4.413 1.04-1.247 2.399-1.87 4.075-1.87 1.762 0 3.151.804 4.179 2.411h.051v-2.055h2.31v11.767zm-6.078-1.405c1.213 0 2.161-.421 2.847-1.259.701-.854 1.054-1.894 1.054-3.102 0-1.196-.354-2.214-1.054-3.049-.686-.843-1.634-1.261-2.847-1.261-1.146 0-2.067.431-2.77 1.28-.681.84-1.024 1.846-1.024 3.029 0 1.208.343 2.238 1.024 3.075.703.856 1.624 1.287 2.77 1.287zM394.672 988.672h.055a3.506 3.506 0 0 1 1.485-1.458 4.466 4.466 0 0 1 2.13-.516c.784 0 1.452.12 1.997.356.549.243.989.582 1.321 1.027.335.447.573.986.717 1.629.145.641.22 1.372.22 2.195v7.151h-2.309v-6.87c0-1.184-.168-2.043-.512-2.589-.339-.565-1.052-.85-2.125-.85-.397 0-.731.038-1.003.115s-.51.19-.718.335c-.206.146-.372.31-.514.5a6.226 6.226 0 0 0-.383.613c-.053.123-.1.274-.139.463-.043.188-.083.382-.118.574a7.128 7.128 0 0 0-.103 1.065v6.644h-2.305v-12.003h2.305v1.619zM413.005 976.804h2.31v12.253h.053c1.059-1.571 2.452-2.358 4.178-2.358 1.677 0 3.035.623 4.076 1.87 1.044 1.22 1.562 2.688 1.562 4.413 0 1.829-.51 3.364-1.535 4.615-1.025 1.247-2.426 1.868-4.206 1.868-.821 0-1.584-.197-2.294-.6s-1.303-.96-1.78-1.682h-.053v1.874h-2.31v-22.253zm5.975 20.615c1.216 0 2.163-.421 2.846-1.259.703-.854 1.054-1.894 1.054-3.102 0-1.196-.351-2.214-1.054-3.049-.683-.843-1.63-1.261-2.846-1.261-1.145 0-2.067.431-2.771 1.28-.682.84-1.024 1.846-1.024 3.029 0 1.208.343 2.238 1.024 3.075.704.856 1.627 1.287 2.771 1.287zM425.519 987.055h2.692l4.052 7.618 3.766-7.618h2.592l-9.717 18.876h-2.616l4.718-8.923-5.487-9.953zM450.26 994.211l-2.203 4.847h-2.591l9.231-20.153 9.229 20.153h-2.587l-2.207-4.847h-8.872zm4.437-10.027-3.437 7.818h6.87l-3.433-7.818zM467.693 999.058h-2.307v-22.254h2.307v22.254zM473.387 999.058h-2.31v-22.254h2.31v22.254zM482.154 989.877v1.923h-5.611v-1.923h5.611zM491.128 979.135c-.717-.327-1.229-.483-1.537-.483-.5 0-.854.154-1.079.472a2.88 2.88 0 0 0-.459 1.165 8.948 8.948 0 0 0-.092.809c-.005.197-.011.467-.011.809v5.149h3.178v2.156h-3.178v9.847h-2.307v-9.847h-1.052v-2.156h1.052v-5.843c0-3.147 1.287-4.717 3.869-4.717.563 0 1.102.106 1.615.309v2.33zM494.694 989.004h.074c.293-.717.72-1.278 1.283-1.689.563-.409 1.229-.616 1.999-.616.632 0 1.268.192 1.897.59l-1.05 2.104c-.378-.323-.848-.489-1.41-.489-1.181 0-1.965.479-2.358 1.438-.17.442-.287.883-.348 1.318-.062.438-.088.936-.088 1.499v5.9h-2.308v-12.003h2.308v1.948zM502.614 993.441c.036 1.078.38 2.007 1.025 2.796.668.784 1.53 1.182 2.591 1.182.837 0 1.525-.192 2.064-.577.537-.388 1.045-.97 1.523-1.757l1.951 1.1a6.317 6.317 0 0 1-2.32 2.413 6.291 6.291 0 0 1-3.245.867c-1.793 0-3.229-.595-4.307-1.793-1.058-1.211-1.589-2.72-1.589-4.515 0-1.892.503-3.448 1.514-4.661.987-1.198 2.434-1.798 4.331-1.798 1.846 0 3.239.6 4.18 1.798.956 1.191 1.437 2.722 1.437 4.587v.358h-9.155zm6.851-1.745c-.143-.921-.498-1.65-1.066-2.189-.574-.539-1.318-.809-2.245-.809-.445 0-.856.069-1.245.219a3.21 3.21 0 0 0-1.024.628 3.548 3.548 0 0 0-.743.963 3.776 3.776 0 0 0-.397 1.188h6.72zM515.122 993.441c.037 1.078.381 2.007 1.031 2.796.665.784 1.529 1.182 2.584 1.182.837 0 1.531-.192 2.066-.577.538-.388 1.044-.97 1.525-1.757l1.948 1.1a6.321 6.321 0 0 1-2.316 2.413 6.303 6.303 0 0 1-3.246.867c-1.797 0-3.231-.595-4.307-1.793-1.06-1.211-1.589-2.72-1.589-4.515 0-1.892.505-3.448 1.514-4.661.987-1.198 2.437-1.798 4.33-1.798 1.848 0 3.238.6 4.179 1.798.956 1.191 1.436 2.722 1.436 4.587v.358h-9.155zm6.851-1.745c-.143-.921-.491-1.65-1.064-2.189-.575-.539-1.322-.809-2.245-.809-.445 0-.856.069-1.249.219a3.188 3.188 0 0 0-1.019.628 3.47 3.47 0 0 0-.743.963 3.702 3.702 0 0 0-.397 1.188h6.717zM531.737 989.877v1.923h-5.612v-1.923h5.612zM543.713 997.184h-.054a5.18 5.18 0 0 1-1.779 1.682c-.71.402-1.472.6-2.293.6-1.779 0-3.182-.621-4.207-1.868-1.027-1.251-1.538-2.786-1.538-4.615 0-1.726.523-3.193 1.563-4.413 1.042-1.247 2.402-1.87 4.077-1.87 1.727 0 3.117.787 4.177 2.358h.054v-12.253h2.31v22.254h-2.31v-1.875zm-3.771.235c1.215 0 2.166-.421 2.849-1.259.7-.854 1.047-1.894 1.047-3.102 0-1.196-.347-2.214-1.047-3.049-.683-.843-1.634-1.261-2.849-1.261-1.144 0-2.065.431-2.766 1.28-.686.84-1.024 1.846-1.024 3.029 0 1.208.339 2.238 1.024 3.075.701.856 1.623 1.287 2.766 1.287zM549.789 988.547c1.244-1.232 2.769-1.849 4.563-1.849 1.794 0 3.309.616 4.538 1.849 1.247 1.229 1.87 2.74 1.87 4.536 0 1.795-.623 3.306-1.87 4.538-1.229 1.232-2.744 1.844-4.538 1.844-1.795 0-3.319-.611-4.563-1.844-1.228-1.232-1.846-2.743-1.846-4.538 0-1.796.619-3.307 1.846-4.536zm.463 4.536c0 1.114.398 2.093 1.203 2.947.783.821 1.748 1.232 2.897 1.232 1.127 0 2.095-.411 2.895-1.232.808-.854 1.205-1.833 1.205-2.947 0-1.127-.397-2.108-1.205-2.948-.8-.82-1.768-1.232-2.895-1.232-1.149 0-2.114.412-2.897 1.232-.805.84-1.203 1.821-1.203 2.948zM566.966 994.7l3.539-8.308 3.517 8.308 3.483-7.646h2.616l-6.1 12.41-3.517-8.021-3.539 8.021-6.101-12.41h2.612l3.49 7.646zM583.581 988.672h.054a3.477 3.477 0 0 1 1.487-1.458 4.462 4.462 0 0 1 2.127-.516c.788 0 1.451.12 2.002.356.547.243.988.582 1.314 1.027.334.447.578.986.721 1.629.147.641.219 1.372.219 2.195v7.151h-2.312v-6.87c0-1.184-.168-2.043-.513-2.589-.334-.565-1.047-.85-2.122-.85a3.77 3.77 0 0 0-1.005.115 2.28 2.28 0 0 0-.713.335c-.209.146-.377.31-.52.5a6.215 6.215 0 0 0-.38.613 2.777 2.777 0 0 0-.142.463 9.099 9.099 0 0 0-.19 1.167 4.245 4.245 0 0 0-.028.472v6.644h-2.306v-12.003h2.306v1.619zM597.094 999.058h-2.307v-22.254h2.307v22.254zM601.144 988.547c1.247-1.232 2.769-1.849 4.566-1.849 1.794 0 3.308.616 4.537 1.849 1.245 1.229 1.87 2.74 1.87 4.536 0 1.795-.625 3.306-1.87 4.538-1.229 1.232-2.743 1.844-4.537 1.844-1.798 0-3.319-.611-4.566-1.844-1.229-1.232-1.846-2.743-1.846-4.538 0-1.796.616-3.307 1.846-4.536zm.464 4.536c0 1.114.398 2.093 1.203 2.947.785.821 1.749 1.232 2.898 1.232 1.125 0 2.095-.411 2.895-1.232.802-.854 1.207-1.833 1.207-2.947 0-1.127-.405-2.108-1.207-2.948-.8-.82-1.77-1.232-2.895-1.232-1.149 0-2.113.412-2.898 1.232-.804.84-1.203 1.821-1.203 2.948zM625.475 999.058h-2.308v-1.874h-.048c-1.026 1.522-2.388 2.281-4.078 2.281-1.763 0-3.162-.621-4.207-1.868-1.025-1.251-1.535-2.786-1.535-4.615 0-1.726.517-3.193 1.563-4.413 1.046-1.247 2.409-1.87 4.104-1.87 1.709 0 3.092.787 4.153 2.358h.048v-2.002h2.308v12.003zm-6.074-1.639c1.214 0 2.158-.421 2.842-1.259.702-.854 1.055-1.894 1.055-3.102 0-1.196-.353-2.214-1.055-3.049-.684-.843-1.628-1.261-2.842-1.261-1.148 0-2.073.431-2.768 1.28-.689.84-1.027 1.846-1.027 3.029 0 1.208.338 2.238 1.027 3.075.695.856 1.62 1.287 2.768 1.287zM637.423 997.184h-.049c-.479.722-1.072 1.279-1.781 1.682s-1.477.6-2.295.6c-1.778 0-3.181-.621-4.202-1.868-1.028-1.251-1.543-2.786-1.543-4.615 0-1.726.52-3.193 1.567-4.413 1.039-1.247 2.399-1.87 4.073-1.87 1.729 0 3.12.787 4.181 2.358h.049v-12.253h2.31v22.254h-2.31v-1.875zm-3.767.235c1.212 0 2.156-.421 2.841-1.259.704-.854 1.056-1.894 1.056-3.102 0-1.196-.352-2.214-1.056-3.049-.685-.843-1.629-1.261-2.841-1.261-1.148 0-2.07.431-2.769 1.28-.685.84-1.026 1.846-1.026 3.029 0 1.208.342 2.238 1.026 3.075.699.856 1.621 1.287 2.769 1.287zM646.348 997.979c0 .414-.146.763-.437 1.052a1.436 1.436 0 0 1-1.055.434c-.407 0-.759-.143-1.046-.434a1.425 1.425 0 0 1-.437-1.052c0-.392.146-.741.437-1.039a1.411 1.411 0 0 1 1.046-.448c.412 0 .764.152 1.055.448.29.298.437.648.437 1.039zM658.965 990.465c-.957-1.073-2.108-1.612-3.438-1.612-1.113 0-2.063.418-2.844 1.256-.771.854-1.158 1.841-1.158 2.95 0 1.249.387 2.265 1.158 3.052.803.801 1.803 1.205 2.996 1.205 1.23 0 2.329-.532 3.286-1.591v2.948c-.997.527-2.095.792-3.312.792-1.778 0-3.298-.6-4.563-1.817-1.25-1.198-1.87-2.695-1.87-4.49 0-1.843.62-3.381 1.87-4.61 1.246-1.232 2.814-1.849 4.693-1.849 1.233 0 2.288.265 3.182.794v2.972zM662.22 988.547c1.245-1.232 2.769-1.849 4.563-1.849 1.794 0 3.304.616 4.535 1.849 1.253 1.229 1.874 2.74 1.874 4.536 0 1.795-.621 3.306-1.874 4.538-1.231 1.232-2.741 1.844-4.535 1.844-1.795 0-3.318-.611-4.563-1.844-1.236-1.232-1.848-2.743-1.848-4.538 0-1.796.611-3.307 1.848-4.536zm.458 4.536c0 1.114.403 2.093 1.204 2.947.788.821 1.755 1.232 2.901 1.232 1.125 0 2.091-.411 2.897-1.232.8-.854 1.203-1.833 1.203-2.947 0-1.127-.403-2.108-1.203-2.948-.807-.82-1.772-1.232-2.897-1.232-1.146 0-2.113.412-2.901 1.232-.801.84-1.204 1.821-1.204 2.948zM677.521 988.568h.051a4.223 4.223 0 0 1 1.376-1.348 3.43 3.43 0 0 1 1.808-.522c1.486 0 2.643.713 3.462 2.132a4.19 4.19 0 0 1 1.551-1.554 4.155 4.155 0 0 1 2.141-.578c2.651 0 3.974 1.728 3.974 5.177v7.183h-2.308v-6.796c0-.306-.011-.611-.037-.912-.024-.296-.075-.587-.141-.868s-.171-.542-.31-.782a2.21 2.21 0 0 0-.563-.643c-.307-.204-.701-.308-1.179-.308-.479 0-.89.104-1.23.308a2.224 2.224 0 0 0-.759.703 3.744 3.744 0 0 0-.421 1.065 8.648 8.648 0 0 0-.195 1.155c-.023.342-.034.736-.034 1.177v5.9h-2.308v-6.36c0-.411-.014-.748-.026-1.022a8.591 8.591 0 0 0-.151-1.03c-.087-.439-.198-.768-.338-.972-.136-.241-.346-.45-.639-.64-.289-.19-.64-.284-1.053-.284-1.179 0-1.942.515-2.28 1.537a6.984 6.984 0 0 0-.304 1.36 11.81 11.81 0 0 0-.086 1.511v5.9h-2.304v-12.003h2.304v1.514z" style="stroke:none;stroke-width:1;stroke-dasharray:none;stroke-linecap:butt;stroke-dashoffset:0;stroke-linejoin:miter;stroke-miterlimit:4;is-custom-font:none;font-file-url:none;fill:#000;fill-rule:nonzero;opacity:1" transform="matrix(.977 0 0 1.3924 0 -56.4)"/><rect width="32.662" height="1.596" x="-16.331" y="-.798" rx="0" ry="0" style="stroke:none;stroke-width:1;stroke-dasharray:none;stroke-linecap:butt;stroke-dashoffset:0;stroke-linejoin:miter;stroke-miterlimit:4;is-custom-font:none;font-file-url:none;fill:#000;fill-rule:nonzero;opacity:1" transform="matrix(.977 0 0 1.3924 288.033 1323.764)"/><rect width="32.656" height="1.596" x="-16.328" y="-.798" rx="0" ry="0" style="stroke:none;stroke-width:1;stroke-dasharray:none;stroke-linecap:butt;stroke-dashoffset:0;stroke-linejoin:miter;stroke-miterlimit:4;is-custom-font:none;font-file-url:none;fill:#000;fill-rule:nonzero;opacity:1" transform="matrix(.977 0 0 1.3924 712.562 1323.764)"/><path d="M310 703h57.75c1.681 0 2.25-.087 2.25-1.765V409.856c0-3.186.935-.66-1.03.714 1.022-.714 2.254-1.431 3.277-2.145 6.242-4.357 12.589-8.717 18.834-13.074 22.09-15.425 44.233-30.848 66.327-46.271 34.417-24.027 68.82-48.057 103.237-72.084-1.545-.886-4.646-1.772-4.646-2.659v424.99c0-1.027 2.131-2.327 3.156-2.327h-97.831c1.027 0 .675 1.3 3.675 2.327V122.983c-3 .726-3.801 1.452-5.554 2.178 33.911 32.371 67.671 64.742 101.584 97.111 21.599 20.618 43.125 41.236 64.727 61.852 5.896 5.63 11.756 11.258 17.652 16.886.955.913 1.69 1.826 2.648 2.736-1.532-1.46-1.058-2.879-1.058.252V631.271c0 1.679 1.8 2.729 3.477 2.729h108.466c-.886 0-1.773-2.914-2.66-4.459-7.368 13.096-14.733 26.28-22.102 39.376-4.389 7.798-8.772 15.642-13.161 23.439-.963 1.713-1.926 3.822-2.888 5.534 1.114-1.98 3.738-.891-.728-.891h-96.699c1.027 0 1.295 1.3 3.295 2.327V407.964c0-2.384-2.713-3.774-4.744-2.66-43.953 24.102-88.341 48.206-132.293 72.31-.942.519-1.963 1.597-1.963 2.66v193.532c0 1.679 2.169 2.193 3.845 2.193h54.155c3 0 3-5 0-5h-54.155c1.027 2 2.155 1.779 2.155 2.807V480.975c0 .203-2.609 2.807 1.443.586 23.535-12.906 47.299-25.813 70.834-38.719 19.583-10.74 39.97-21.479 59.553-32.219-1.546-.887-3.83-1.773-3.83-2.659V699.326c0 1.679.024 3.673 1.705 3.673h99.954c1.07 0 2.13-.88 2.658-1.822 12.765-22.685 25.524-46.114 38.285-68.8 1.139-2.025-.298-5.378-2.66-5.378H648.474c1.026 2 3.523 3.244 3.523 4.271V305.793c0-2.48.268-5.021-1.676-6.874-12.999-12.409-26.114-24.817-39.11-37.227-44.16-42.15-88.37-84.301-132.53-126.452-5.042-4.812-10.232-9.625-15.275-14.437-1.925-1.839-5.408-.556-5.408 2.178v576.343c0 1.679 1.649 3.673 3.325 3.673h97.831c1.678 0 3.844-1.994 3.844-3.673v-424.99c0-2.192-3.053-4.031-5.018-2.659-39.937 27.883-80.068 55.764-120.004 83.646-21.216 14.809-42.856 29.618-64.072 44.429-2.13 1.487-9.906 4.939-9.906 8.211V701.231c2-1.027 2.723-1.235 3.75-4.235h-57.75C306 697 306 703 310 703c0 0-4 0 0 0zM270.464 831.349v-59.434h25.352c11.315 0 16.956 4.75 16.956 14.251 0 7.745-5.52 13.459-16.583 17.168l20.41 28.015h-10.141l-18.905-26.723v-5.032c11.36-1.796 17.036-6.16 17.036-13.085 0-5.487-3.162-8.233-9.479-8.233h-16.951v53.073h-7.695zM363.566 771.915v6.234H332.39v19.954h29.731v6.233H332.39v20.779h31.789v6.232h-39.483v-59.434h38.87zM377.782 831.349H369.8l25.231-59.434h8.512l25.363 59.434h-8.524l-7.694-18.71h-19.655l2.122-6.227h14.958l-11.095-26.932-21.236 51.869zM444.687 771.915v53.201h31.1v6.232h-38.793v-59.434h7.693zM544.568 771.915v6.234h-31.172v19.954h29.72v6.233h-29.72v20.779h31.802v6.232h-39.483v-59.434h38.853zM555.996 829.265v-7.062c6.242 2.22 12.981 3.319 20.21 3.319 10.22 0 15.339-3.736 15.339-11.207 0-6.38-3.779-9.565-11.316-9.565h-7.649c-12.443 0-18.652-5.413-18.652-16.207 0-11.356 7.958-17.043 23.891-17.043 6.936 0 13.374.828 19.335 2.491v7.063c-5.961-2.214-12.399-3.32-19.335-3.32-10.802 0-16.197 3.602-16.197 10.809 0 6.374 3.65 9.561 10.959 9.561h7.649c12.663 0 18.997 5.391 18.997 16.212 0 11.629-7.673 17.441-23.02 17.441-7.229 0-13.969-.829-20.211-2.492zM650.559 771.915v6.234h-18.704v53.199h-7.698v-53.199H605.46v-6.234h45.099zM655.416 831.349h-7.979l25.223-59.434h8.525l25.351 59.434h-8.516l-7.69-18.71h-19.655l2.106-6.227h14.971L676.66 779.48l-21.244 51.869zM748.515 771.915v6.234h-18.696v53.199h-7.687v-53.199h-18.708v-6.234h45.091zM796.514 771.915v6.234h-31.176v19.954h29.731v6.233h-29.731v20.779h31.806v6.232h-39.487v-59.434h38.857zM353.634 869.314v2.787h-9.523V854.09h2.892v15.011c0 .137.077.213.217.213h6.414zM390.238 853.895c5.283 0 9.539 4.104 9.539 9.197 0 5.095-4.256 9.202-9.539 9.202-5.275 0-9.547-4.107-9.547-9.202 0-5.094 4.271-9.197 9.547-9.197zm0 15.615c3.654 0 6.61-2.879 6.61-6.418 0-3.529-2.957-6.386-6.61-6.386-3.671 0-6.655 2.856-6.655 6.386 0 3.539 2.984 6.418 6.655 6.418zM444.222 868.688c-1.304 1.901-3.919 3.605-7.75 3.605-5.278 0-9.542-4.107-9.542-9.202 0-5.094 4.264-9.197 9.542-9.197 3.017 0 5.348 1.371 6.402 2.238l-1.877 2.138c-1.111-.919-2.88-1.564-4.525-1.564-3.646 0-6.638 2.856-6.638 6.386 0 3.539 2.992 6.418 6.787 6.418 2.138 0 3.839-.793 4.641-1.78v-2.351c-.356-.023-.754-.057-1.151-.057h-4.412v-2.728h8.524v6.094zM480.511 853.895c5.292 0 9.547 4.104 9.547 9.197 0 5.095-4.256 9.202-9.547 9.202-5.282 0-9.547-4.107-9.547-9.202 0-5.094 4.265-9.197 9.547-9.197zm0 15.615c3.659 0 6.64-2.879 6.64-6.418 0-3.529-2.981-6.386-6.64-6.386-3.669 0-6.646 2.856-6.646 6.386 0 3.539 2.977 6.418 6.646 6.418zM517.195 854.091h5.939c5.204 0 9.355 4.079 9.355 9.001 0 4.958-4.151 9.01-9.355 9.01h-5.939v-18.011zm5.94 15.223c3.644 0 6.463-2.708 6.463-6.223 0-3.502-2.775-6.193-6.405-6.193h-2.929c-.092 0-.145.024-.145.117v12.158c0 .096.053.141.145.141h2.871zM562.627 869.174c0 .096.049.141.137.141h6.675v2.787h-9.708v-18.011h9.708v2.808h-6.675c-.088 0-.137.024-.137.117v4.521c0 .092.049.112.137.112h6.675v2.816h-6.675c-.088 0-.137.051-.137.128v4.581zM599.178 868.019c.465.862 1.248 1.508 2.547 1.508 1.292 0 2.435-1.119 2.435-2.375 0-1.748-1.544-2.422-2.924-2.977-2.591-1.059-4.601-2.161-4.601-5.118 0-2.977 2.262-5.134 5.279-5.134 1.845 0 3.733.999 4.509 2.708l-2.616 1.234c-.404-.798-1.275-1.135-1.993-1.135-1.224 0-2.255 1.056-2.255 2.19 0 1.412.982 1.869 2.175 2.442 3.722 1.561 5.287 2.696 5.287 5.788 0 2.856-2.392 5.143-5.26 5.143h-.096c-2.584 0-4.505-1.604-5.011-3.505.864-.244 1.673-.501 2.524-.769zM637.064 854.111v17.99h-2.88v-17.99h2.88zM681.658 868.688c-1.308 1.901-3.911 3.605-7.742 3.605-5.294 0-9.543-4.107-9.543-9.202 0-5.094 4.249-9.197 9.543-9.197 3.018 0 5.355 1.371 6.391 2.238l-1.857 2.138c-1.127-.919-2.889-1.564-4.533-1.564-3.638 0-6.618 2.856-6.618 6.386 0 3.539 2.98 6.418 6.76 6.418 2.137 0 3.83-.793 4.636-1.78v-2.351c-.336-.023-.737-.057-1.146-.057h-4.408v-2.728h8.52v6.094zM711.995 854.111c2.612 4.011 5.263 8.019 7.879 12.058.232.337.444.666.697.982v-13.04h2.924v17.99h-3.08l-7.825-12.01c-.221-.332-.502-.654-.727-.987 0 .458-.024.932-.024 1.452v11.545h-2.893v-17.99h3.049z" style="stroke:none;stroke-width:1;stroke-dasharray:none;stroke-linecap:butt;stroke-dashoffset:0;stroke-linejoin:miter;stroke-miterlimit:4;is-custom-font:none;font-file-url:none;fill:#000;fill-rule:nonzero;opacity:1" transform="matrix(.977 0 0 1.3924 0 -56.4)"/></g></svg>